<svg class="main-svg" xmlns="http://www.w3.org/2000/svg" xmlns:xlink="http://www.w3.org/1999/xlink" width="700" height="500" style="" viewBox="0 0 700 500"><rect x="0" y="0" width="700" height="500" style="fill: rgb(255, 255, 255); fill-opacity: 1;"/><defs id="defs-1ce10a"><g class="clips"/><g class="gradients"/><g class="patterns"/></defs><g class="bglayer"/><g class="layer-below"><g class="imagelayer"/><g class="shapelayer"/></g><g class="cartesianlayer"/><g class="polarlayer"/><g class="ternarylayer"/><g class="geolayer"/><g class="funnelarealayer"/><g class="pielayer"/><g class="iciclelayer"/><g class="treemaplayer"/><g class="sunburstlayer"><g class="trace sunburst" stroke-linejoin="round" style="opacity: 1;"><g class="slice cursor-pointer"><path class="surface" d="M375,242.5L266.25,242.5A108.75,108.75 0,0,0 354.5968832989413,349.31889031853393L375,242.5A0,0 0,0,1 375,242.5Z" style="pointer-events: all; stroke-width: 1; fill: rgb(255, 127, 0); fill-opacity: 1; stroke: rgb(255, 255, 255); stroke-opacity: 1;"/><g class="slicetext"><text data-notex="1" class="slicetext" text-anchor="middle" x="0" y="0" style="font-family: 'Open Sans', verdana, arial, sans-serif; font-size: 12px; fill: rgb(68, 68, 68); fill-opacity: 1; white-space: pre;" transform="translate(323.36511346579846,289.3309875230167)">Uncertainty</text></g></g><g class="slice cursor-pointer"><path class="surface" d="M375,242.5L354.5968832989413,349.31889031853393A108.75,108.75 0,0,0 477.64127127949854,278.4351072090844L375,242.5A0,0 0,0,1 375,242.5Z" style="pointer-events: all; stroke-width: 1; fill: rgb(152, 78, 163); fill-opacity: 1; stroke: rgb(255, 255, 255); stroke-opacity: 1;"/><g class="slicetext"><text data-notex="1" class="slicetext" text-anchor="middle" x="0" y="0" style="font-family: 'Open Sans', verdana, arial, sans-serif; font-size: 12px; fill: rgb(255, 255, 255); fill-opacity: 1; white-space: pre;" transform="translate(417.7461893577986,317.57788298334094)rotate(-29.945514265936026)">Financial sector</text></g></g><g class="slice cursor-pointer"><path class="surface" d="M375,242.5L477.64127127949854,278.4351072090844A108.75,108.75 0,0,0 445.5522960009373,159.7417011472799L375,242.5A0,0 0,0,1 375,242.5Z" style="pointer-events: all; stroke-width: 1; fill: rgb(77, 175, 74); fill-opacity: 1; stroke: rgb(255, 255, 255); stroke-opacity: 1;"/><g class="slicetext"><text data-notex="1" class="slicetext" text-anchor="middle" x="0" y="0" style="font-family: 'Open Sans', verdana, arial, sans-serif; font-size: 12px; fill: rgb(68, 68, 68); fill-opacity: 1; white-space: pre;" transform="translate(455.4624771235258,220.74682495062805)scale(0.9605896607894865)rotate(74.8716397783054)">Governing council</text></g></g><g class="slice cursor-pointer"><path class="surface" d="M375,242.5L445.5522960009373,159.7417011472799A108.75,108.75 0,0,0 335.2722783279856,141.26625744964798L375,242.5A0,0 0,0,1 375,242.5Z" style="pointer-events: all; stroke-width: 1; fill: rgb(55, 126, 184); fill-opacity: 1; stroke: rgb(255, 255, 255); stroke-opacity: 1;"/><g class="slicetext"><text data-notex="1" class="slicetext" text-anchor="middle" x="0" y="0" style="font-family: 'Open Sans', verdana, arial, sans-serif; font-size: 12px; fill: rgb(255, 255, 255); fill-opacity: 1; white-space: pre;" transform="translate(388.4952161776136,159.2045865265151)rotate(9.510561329219797)">Fiscal policy</text></g></g><g class="slice cursor-pointer"><path class="surface" d="M375,242.5L335.2722783279856,141.26625744964798A108.75,108.75 0,0,0 266.25,242.49999999999997L375,242.5A0,0 0,0,1 375,242.5Z" style="pointer-events: all; stroke-width: 1; fill: rgb(228, 26, 28); fill-opacity: 1; stroke: rgb(255, 255, 255); stroke-opacity: 1;"/><g class="slicetext"><text data-notex="1" class="slicetext" text-anchor="middle" x="0" y="0" style="font-family: 'Open Sans', verdana, arial, sans-serif; font-size: 12px; fill: rgb(255, 255, 255); fill-opacity: 1; white-space: pre;" transform="translate(317.5250170320051,207.81292490653473)">Inflation</text></g></g><g class="slice"><path class="surface" d="M266.25,242.5L157.5,242.49999999999997A217.5,217.5 0,0,0 157.7051004913118,251.94333879033812L266.3525502456559,247.22166939516907A108.75,108.75 0,0,1 266.25,242.5Z" style="pointer-events: all; stroke-width: 1; fill: rgb(255, 127, 0); fill-opacity: 1; stroke: rgb(255, 255, 255); stroke-opacity: 1; opacity: 1;"/><g class="slicetext"><text data-notex="1" class="slicetext" text-anchor="middle" x="0" y="0" style="font-family: 'Open Sans', verdana, arial, sans-serif; font-size: 12px; fill: rgb(68, 68, 68); fill-opacity: 1; white-space: pre;" transform="translate(168.74090265045396,249.45471807436306)scale(0.549862165803831)rotate(-1.244215158596944)">upside</text></g></g><g class="slice"><path class="surface" d="M266.3525502456559,247.22166939516907L157.7051004913118,251.94333879033812A217.5,217.5 0,0,0 158.32658404879552,261.4441500214797L266.6632920243978,251.97207501073984A108.75,108.75 0,0,1 266.3525502456559,247.22166939516907Z" style="pointer-events: all; stroke-width: 1; fill: rgb(255, 127, 0); fill-opacity: 1; stroke: rgb(255, 255, 255); stroke-opacity: 1; opacity: 1;"/><g class="slicetext"><text data-notex="1" class="slicetext" text-anchor="middle" x="0" y="0" style="font-family: 'Open Sans', verdana, arial, sans-serif; font-size: 12px; fill: rgb(68, 68, 68); fill-opacity: 1; white-space: pre;" transform="translate(176.1562439592846,257.8228853221415)scale(0.5135185914764457)rotate(-3.7425989316340065)">uncertainty</text></g></g><g class="slice"><path class="surface" d="M266.6632920243978,251.97207501073984L158.32658404879552,261.4441500214797A217.5,217.5 0,0,0 159.39631860018753,271.15837690533357L267.1981593000938,256.82918845266676A108.75,108.75 0,0,1 266.6632920243978,251.97207501073984Z" style="pointer-events: all; stroke-width: 1; fill: rgb(255, 127, 0); fill-opacity: 1; stroke: rgb(255, 255, 255); stroke-opacity: 1; opacity: 1;"/><g class="slicetext"><text data-notex="1" class="slicetext" text-anchor="middle" x="0" y="0" style="font-family: 'Open Sans', verdana, arial, sans-serif; font-size: 12px; fill: rgb(68, 68, 68); fill-opacity: 1; white-space: pre;" transform="translate(171.42289380473306,267.4580544073712)scale(0.5610665892788143)rotate(-6.2841143466587255)">market</text></g></g><g class="slice"><path class="surface" d="M267.1981593000938,256.82918845266676L159.39631860018753,271.15837690533357A217.5,217.5 0,0,0 161.53619657164876,284.20676954526954L268.2680982858244,263.35338477263474A108.75,108.75 0,0,1 267.1981593000938,256.82918845266676Z" style="pointer-events: all; stroke-width: 1; fill: rgb(255, 127, 0); fill-opacity: 1; stroke: rgb(255, 255, 255); stroke-opacity: 1; opacity: 1;"/><g class="slicetext"><text data-notex="1" class="slicetext" text-anchor="middle" x="0" y="0" style="font-family: 'Open Sans', verdana, arial, sans-serif; font-size: 12px; fill: rgb(68, 68, 68); fill-opacity: 1; white-space: pre;" transform="translate(193.7531283966445,274.9344136268568)scale(0.594445629420744)rotate(-9.313349098004437)">governing_council</text></g></g><g class="slice"><path class="surface" d="M268.2680982858244,263.35338477263474L161.53619657164876,284.20676954526954A217.5,217.5 0,0,0 164.48400083224533,297.17416295108615L269.74200041612266,269.8370814755431A108.75,108.75 0,0,1 268.2680982858244,263.35338477263474Z" style="pointer-events: all; stroke-width: 1; fill: rgb(255, 127, 0); fill-opacity: 1; stroke: rgb(255, 255, 255); stroke-opacity: 1; opacity: 1;"/><g class="slicetext"><text data-notex="1" class="slicetext" text-anchor="middle" x="0" y="0" style="font-family: 'Open Sans', verdana, arial, sans-serif; font-size: 12px; fill: rgb(68, 68, 68); fill-opacity: 1; white-space: pre;" transform="translate(181.21222148726255,289.8742590542762)scale(0.7197653787658591)rotate(-12.807078455370174)">inflation</text></g></g><g class="slice"><path class="surface" d="M269.74200041612266,269.8370814755431L164.48400083224533,297.17416295108615A217.5,217.5 0,0,0 168.24221057956711,310.00901061322065L271.62110528978354,276.2545053066103A108.75,108.75 0,0,1 269.74200041612266,269.8370814755431Z" style="pointer-events: all; stroke-width: 1; fill: rgb(255, 127, 0); fill-opacity: 1; stroke: rgb(255, 255, 255); stroke-opacity: 1; opacity: 1;"/><g class="slicetext"><text data-notex="1" class="slicetext" text-anchor="middle" x="0" y="0" style="font-family: 'Open Sans', verdana, arial, sans-serif; font-size: 12px; fill: rgb(68, 68, 68); fill-opacity: 1; white-space: pre;" transform="translate(182.61167272043426,302.3017803580943)scale(0.7396084099181475)rotate(-16.320714724422487)">growth</text></g></g><g class="slice"><path class="surface" d="M271.62110528978354,276.2545053066103L168.24221057956711,310.00901061322065A217.5,217.5 0,0,0 172.94021180863683,322.9865951327391L273.9701059043184,282.74329756636956A108.75,108.75 0,0,1 271.62110528978354,276.2545053066103Z" style="pointer-events: all; stroke-width: 1; fill: rgb(255, 127, 0); fill-opacity: 1; stroke: rgb(255, 255, 255); stroke-opacity: 1; opacity: 1;"/><g class="slicetext"><text data-notex="1" class="slicetext" text-anchor="middle" x="0" y="0" style="font-family: 'Open Sans', verdana, arial, sans-serif; font-size: 12px; fill: rgb(68, 68, 68); fill-opacity: 1; white-space: pre;" transform="translate(201.8665802262895,308.175461125989)scale(0.6267766551636582)rotate(-19.900707365763424)">monetary_policy</text></g></g><g class="slice"><path class="surface" d="M273.9701059043184,282.74329756636956L172.94021180863683,322.9865951327391A217.5,217.5 0,0,0 178.7983805206746,336.3678566586561L276.8991902603373,289.43392832932807A108.75,108.75 0,0,1 273.9701059043184,282.74329756636956Z" style="pointer-events: all; stroke-width: 1; fill: rgb(255, 127, 0); fill-opacity: 1; stroke: rgb(255, 255, 255); stroke-opacity: 1; opacity: 1;"/><g class="slicetext"><text data-notex="1" class="slicetext" text-anchor="middle" x="0" y="0" style="font-family: 'Open Sans', verdana, arial, sans-serif; font-size: 12px; fill: rgb(68, 68, 68); fill-opacity: 1; white-space: pre;" transform="translate(193.79013207290836,325.6967364870784)scale(0.7868050185319279)rotate(-23.643273119211358)">outlook</text></g></g><g class="slice"><path class="surface" d="M276.8991902603373,289.43392832932807L178.7983805206746,336.3678566586561A217.5,217.5 0,0,0 185.60341387547584,349.4354158563743L280.3017069377379,295.9677079281871A108.75,108.75 0,0,1 276.8991902603373,289.43392832932807Z" style="pointer-events: all; stroke-width: 1; fill: rgb(255, 127, 0); fill-opacity: 1; stroke: rgb(255, 255, 255); stroke-opacity: 1; opacity: 1;"/><g class="slicetext"><text data-notex="1" class="slicetext" text-anchor="middle" x="0" y="0" style="font-family: 'Open Sans', verdana, arial, sans-serif; font-size: 12px; fill: rgb(68, 68, 68); fill-opacity: 1; white-space: pre;" transform="translate(208.66697167225126,332.7073549865211)scale(0.7072143392278435)rotate(-27.508598161393138)">interest_rate</text></g></g><g class="slice"><path class="surface" d="M280.3017069377379,295.9677079281871L185.60341387547584,349.4354158563743A217.5,217.5 0,0,0 196.29502746139912,366.47896107799056L285.64751373069953,304.4894805389953A108.75,108.75 0,0,1 280.3017069377379,295.9677079281871Z" style="pointer-events: all; stroke-width: 1; fill: rgb(255, 127, 0); fill-opacity: 1; stroke: rgb(255, 255, 255); stroke-opacity: 1; opacity: 1;"/><g class="slicetext"><text data-notex="1" class="slicetext" text-anchor="middle" x="0" y="0" style="font-family: 'Open Sans', verdana, arial, sans-serif; font-size: 12px; fill: rgb(68, 68, 68); fill-opacity: 1; white-space: pre;" transform="translate(222.83373764385507,342.63016601585315)scale(0.8799672752697376)rotate(-32.100525480134706)">development</text></g></g><g class="slice"><path class="surface" d="M285.64751373069953,304.4894805389953L196.29502746139912,366.47896107799056A217.5,217.5 0,0,0 210.59233204703344,384.89511479775945L292.7961660235167,313.6975573988797A108.75,108.75 0,0,1 285.64751373069953,304.4894805389953Z" style="pointer-events: all; stroke-width: 1; fill: rgb(255, 127, 0); fill-opacity: 1; stroke: rgb(255, 255, 255); stroke-opacity: 1; opacity: 1;"/><g class="slicetext"><text data-notex="1" class="slicetext" text-anchor="middle" x="0" y="0" style="font-family: 'Open Sans', verdana, arial, sans-serif; font-size: 12px; fill: rgb(68, 68, 68); fill-opacity: 1; white-space: pre;" transform="translate(232.30090982044416,358.9807703932673)rotate(-37.82382894639659)">euro_area</text></g></g><g class="slice"><path class="surface" d="M292.7961660235167,313.6975573988797L210.59233204703344,384.89511479775945A217.5,217.5 0,0,0 227.25871853632322,402.1206871037418L301.1293592681616,322.3103435518709A108.75,108.75 0,0,1 292.7961660235167,313.6975573988797Z" style="pointer-events: all; stroke-width: 1; fill: rgb(255, 127, 0); fill-opacity: 1; stroke: rgb(255, 255, 255); stroke-opacity: 1; opacity: 1;"/><g class="slicetext"><text data-notex="1" class="slicetext" text-anchor="middle" x="0" y="0" style="font-family: 'Open Sans', verdana, arial, sans-serif; font-size: 12px; fill: rgb(68, 68, 68); fill-opacity: 1; white-space: pre;" transform="translate(251.54963753360042,367.9304075308718)scale(0.9562469282379747)rotate(-44.05475866066604)">price_stability</text></g></g><g class="slice"><path class="surface" d="M301.1293592681616,322.3103435518709L227.25871853632322,402.1206871037418A217.5,217.5 0,0,0 249.31107265614037,420.006460567355L312.1555363280702,331.2532302836775A108.75,108.75 0,0,1 301.1293592681616,322.3103435518709Z" style="pointer-events: all; stroke-width: 1; fill: rgb(255, 127, 0); fill-opacity: 1; stroke: rgb(255, 255, 255); stroke-opacity: 1; opacity: 1;"/><g class="slicetext"><text data-notex="1" class="slicetext" text-anchor="middle" x="0" y="0" style="font-family: 'Open Sans', verdana, arial, sans-serif; font-size: 12px; fill: rgb(68, 68, 68); fill-opacity: 1; white-space: pre;" transform="translate(264.5263987215711,385.8527618414976)rotate(-50.955887735050055)">monetary</text></g></g><g class="slice"><path class="surface" d="M312.1555363280702,331.2532302836775L249.31107265614037,420.006460567355A217.5,217.5 0,0,0 275.0459130154266,435.67202306514355L325.0229565077133,339.0860115325718A108.75,108.75 0,0,1 312.1555363280702,331.2532302836775Z" style="pointer-events: all; stroke-width: 1; fill: rgb(255, 127, 0); fill-opacity: 1; stroke: rgb(255, 255, 255); stroke-opacity: 1; opacity: 1;"/><g class="slicetext"><text data-notex="1" class="slicetext" text-anchor="middle" x="0" y="0" style="font-family: 'Open Sans', verdana, arial, sans-serif; font-size: 12px; fill: rgb(68, 68, 68); fill-opacity: 1; white-space: pre;" transform="translate(285.3011285638177,398.50855692588306)rotate(-58.66988236996917)">economic</text></g></g><g class="slice"><path class="surface" d="M325.0229565077133,339.0860115325718L275.0459130154266,435.67202306514355A217.5,217.5 0,0,0 305.1506855018516,448.47893888487425L340.0753427509258,345.4894694424371A108.75,108.75 0,0,1 325.0229565077133,339.0860115325718Z" style="pointer-events: all; stroke-width: 1; fill: rgb(255, 127, 0); fill-opacity: 1; stroke: rgb(255, 255, 255); stroke-opacity: 1; opacity: 1;"/><g class="slicetext"><text data-notex="1" class="slicetext" text-anchor="middle" x="0" y="0" style="font-family: 'Open Sans', verdana, arial, sans-serif; font-size: 12px; fill: rgb(68, 68, 68); fill-opacity: 1; white-space: pre;" transform="translate(295.35958623799587,433.14281108369914)">risk</text></g></g><g class="slice"><path class="surface" d="M354.5968832989413,349.31889031853393L334.19376659788253,456.13778063706786A217.5,217.5 0,0,0 344.1476696791259,457.80068210243013L359.57383483956295,350.15034105121504A108.75,108.75 0,0,1 354.5968832989413,349.31889031853393Z" style="pointer-events: all; stroke-width: 1; fill: rgb(152, 78, 163); fill-opacity: 1; stroke: rgb(255, 255, 255); stroke-opacity: 1; opacity: 1;"/><g class="slicetext"><text data-notex="1" class="slicetext" text-anchor="middle" x="0" y="0" style="font-family: 'Open Sans', verdana, arial, sans-serif; font-size: 12px; fill: rgb(255, 255, 255); fill-opacity: 1; white-space: pre;" transform="translate(344.4728637655845,440.24177634732064)scale(0.5496390162676814)rotate(-80.51573840929143)">household</text></g></g><g class="slice"><path class="surface" d="M359.57383483956295,350.15034105121504L344.1476696791259,457.80068210243013A217.5,217.5 0,0,0 354.371469103864,459.019545799143L364.685734551932,350.7597728995715A108.75,108.75 0,0,1 359.57383483956295,350.15034105121504Z" style="pointer-events: all; stroke-width: 1; fill: rgb(152, 78, 163); fill-opacity: 1; stroke: rgb(255, 255, 255); stroke-opacity: 1; opacity: 1;"/><g class="slicetext"><text data-notex="1" class="slicetext" text-anchor="middle" x="0" y="0" style="font-family: 'Open Sans', verdana, arial, sans-serif; font-size: 12px; fill: rgb(255, 255, 255); fill-opacity: 1; white-space: pre;" transform="translate(353.63835661753336,443.46851274261195)scale(0.573157970436664)rotate(-83.20138458313534)">measure</text></g></g><g class="slice"><path class="surface" d="M364.685734551932,350.7597728995715L354.371469103864,459.019545799143A217.5,217.5 0,0,0 365.73905432418456,459.80274937328704L370.36952716209225,351.1513746866435A108.75,108.75 0,0,1 364.685734551932,350.7597728995715Z" style="pointer-events: all; stroke-width: 1; fill: rgb(152, 78, 163); fill-opacity: 1; stroke: rgb(255, 255, 255); stroke-opacity: 1; opacity: 1;"/><g class="slicetext"><text data-notex="1" class="slicetext" text-anchor="middle" x="0" y="0" style="font-family: 'Open Sans', verdana, arial, sans-serif; font-size: 12px; fill: rgb(255, 255, 255); fill-opacity: 1; white-space: pre;" transform="translate(363.9006550623608,445.79403902103854)scale(0.6445170004849449)rotate(-86.05866549654229)">private</text></g></g><g class="slice"><path class="surface" d="M370.36952716209225,351.1513746866435L365.73905432418456,459.80274937328704A217.5,217.5 0,0,0 377.36200027857404,459.98717423030723L376.181000139287,351.2435871151536A108.75,108.75 0,0,1 370.36952716209225,351.1513746866435Z" style="pointer-events: all; stroke-width: 1; fill: rgb(152, 78, 163); fill-opacity: 1; stroke: rgb(255, 255, 255); stroke-opacity: 1; opacity: 1;"/><g class="slicetext"><text data-notex="1" class="slicetext" text-anchor="middle" x="0" y="0" style="font-family: 'Open Sans', verdana, arial, sans-serif; font-size: 12px; fill: rgb(255, 255, 255); fill-opacity: 1; white-space: pre;" transform="translate(374.81609612518787,451.792221046193)scale(0.6970234035584755)rotate(-89.09094653656234)">real</text></g></g><g class="slice"><path class="surface" d="M376.181000139287,351.2435871151536L377.36200027857404,459.98717423030723A217.5,217.5 0,0,0 390.04893292983405,459.47875383934104L382.524466464917,350.9893769196705A108.75,108.75 0,0,1 376.181000139287,351.2435871151536Z" style="pointer-events: all; stroke-width: 1; fill: rgb(152, 78, 163); fill-opacity: 1; stroke: rgb(255, 255, 255); stroke-opacity: 1; opacity: 1;"/><g class="slicetext"><text data-notex="1" class="slicetext" text-anchor="middle" x="0" y="0" style="font-family: 'Open Sans', verdana, arial, sans-serif; font-size: 12px; fill: rgb(255, 255, 255); fill-opacity: 1; white-space: pre;" transform="translate(379.9013178569476,442.6019758513144)scale(0.6922523132184042)rotate(87.70513768385467)">demand</text></g></g><g class="slice"><path class="surface" d="M382.524466464917,350.9893769196705L390.04893292983405,459.47875383934104A217.5,217.5 0,0,0 404.7866833821094,457.9506985207845L389.89334169105473,350.22534926039225A108.75,108.75 0,0,1 382.524466464917,350.9893769196705Z" style="pointer-events: all; stroke-width: 1; fill: rgb(152, 78, 163); fill-opacity: 1; stroke: rgb(255, 255, 255); stroke-opacity: 1; opacity: 1;"/><g class="slicetext"><text data-notex="1" class="slicetext" text-anchor="middle" x="0" y="0" style="font-family: 'Open Sans', verdana, arial, sans-serif; font-size: 12px; fill: rgb(255, 255, 255); fill-opacity: 1; white-space: pre;" transform="translate(392.17791776988025,444.4432819991058)scale(0.8311407384989178)rotate(84.08054852298983)">credit</text></g></g><g class="slice"><path class="surface" d="M389.89334169105473,350.22534926039225L404.7866833821094,457.9506985207845A217.5,217.5 0,0,0 420.3612363805123,455.21720248731947L397.68061819025615,348.85860124365973A108.75,108.75 0,0,1 389.89334169105473,350.22534926039225Z" style="pointer-events: all; stroke-width: 1; fill: rgb(152, 78, 163); fill-opacity: 1; stroke: rgb(255, 255, 255); stroke-opacity: 1; opacity: 1;"/><g class="slicetext"><text data-notex="1" class="slicetext" text-anchor="middle" x="0" y="0" style="font-family: 'Open Sans', verdana, arial, sans-serif; font-size: 12px; fill: rgb(255, 255, 255); fill-opacity: 1; white-space: pre;" transform="translate(405.69816117657894,439.71602601815704)scale(0.8569683524816246)rotate(80.04538214199397)">annual</text></g></g><g class="slice"><path class="surface" d="M397.68061819025615,348.85860124365973L420.3612363805123,455.21720248731947A217.5,217.5 0,0,0 436.52975455437286,451.11529019819864L405.76487727718643,346.8076450990993A108.75,108.75 0,0,1 397.68061819025615,348.85860124365973Z" style="pointer-events: all; stroke-width: 1; fill: rgb(152, 78, 163); fill-opacity: 1; stroke: rgb(255, 255, 255); stroke-opacity: 1; opacity: 1;"/><g class="slicetext"><text data-notex="1" class="slicetext" text-anchor="middle" x="0" y="0" style="font-family: 'Open Sans', verdana, arial, sans-serif; font-size: 12px; fill: rgb(255, 255, 255); fill-opacity: 1; white-space: pre;" transform="translate(418.9214276219178,431.0840181312495)scale(0.8447633342316146)rotate(75.76454250632958)">condition</text></g></g><g class="slice"><path class="surface" d="M405.76487727718643,346.8076450990993L436.52975455437286,451.11529019819864A217.5,217.5 0,0,0 453.2430664277507,445.4390858262217L414.12153321387535,343.96954291311084A108.75,108.75 0,0,1 405.76487727718643,346.8076450990993Z" style="pointer-events: all; stroke-width: 1; fill: rgb(152, 78, 163); fill-opacity: 1; stroke: rgb(255, 255, 255); stroke-opacity: 1; opacity: 1;"/><g class="slicetext"><text data-notex="1" class="slicetext" text-anchor="middle" x="0" y="0" style="font-family: 'Open Sans', verdana, arial, sans-serif; font-size: 12px; fill: rgb(255, 255, 255); fill-opacity: 1; white-space: pre;" transform="translate(434.7964429915159,431.86950042131207)scale(0.950576741155528)rotate(71.24139500304682)">sector</text></g></g><g class="slice"><path class="surface" d="M414.12153321387535,343.96954291311084L453.2430664277507,445.4390858262217A217.5,217.5 0,0,0 471.5072262225578,437.4169189342681L423.25361311127887,339.95845946713405A108.75,108.75 0,0,1 414.12153321387535,343.96954291311084Z" style="pointer-events: all; stroke-width: 1; fill: rgb(152, 78, 163); fill-opacity: 1; stroke: rgb(255, 255, 255); stroke-opacity: 1; opacity: 1;"/><g class="slicetext"><text data-notex="1" class="slicetext" text-anchor="middle" x="0" y="0" style="font-family: 'Open Sans', verdana, arial, sans-serif; font-size: 12px; fill: rgb(255, 255, 255); fill-opacity: 1; white-space: pre;" transform="translate(452.6800019135937,430.5448687471856)rotate(66.28747795733159)">rate</text></g></g><g class="slice"><path class="surface" d="M423.25361311127887,339.95845946713405L471.5072262225578,437.4169189342681A217.5,217.5 0,0,0 489.4162477261589,427.4734366233872L432.20812386307944,334.9867183116936A108.75,108.75 0,0,1 423.25361311127887,339.95845946713405Z" style="pointer-events: all; stroke-width: 1; fill: rgb(152, 78, 163); fill-opacity: 1; stroke: rgb(255, 255, 255); stroke-opacity: 1; opacity: 1;"/><g class="slicetext"><text data-notex="1" class="slicetext" text-anchor="middle" x="0" y="0" style="font-family: 'Open Sans', verdana, arial, sans-serif; font-size: 12px; fill: rgb(255, 255, 255); fill-opacity: 1; white-space: pre;" transform="translate(462.04386161893797,408.15745247148493)scale(0.9583667899099226)rotate(60.960002949038085)">euro_area</text></g></g><g class="slice"><path class="surface" d="M432.20812386307944,334.9867183116936L489.4162477261589,427.4734366233872A217.5,217.5 0,0,0 506.83937280381883,415.4873688414726L440.9196864019094,328.99368442073626A108.75,108.75 0,0,1 432.20812386307944,334.9867183116936Z" style="pointer-events: all; stroke-width: 1; fill: rgb(152, 78, 163); fill-opacity: 1; stroke: rgb(255, 255, 255); stroke-opacity: 1; opacity: 1;"/><g class="slicetext"><text data-notex="1" class="slicetext" text-anchor="middle" x="0" y="0" style="font-family: 'Open Sans', verdana, arial, sans-serif; font-size: 12px; fill: rgb(255, 255, 255); fill-opacity: 1; white-space: pre;" transform="translate(479.4570906301063,402.28002687197267)rotate(55.474354749382655)">financial</text></g></g><g class="slice"><path class="surface" d="M440.9196864019094,328.99368442073626L506.83937280381883,415.4873688414726A217.5,217.5 0,0,0 523.0909636806814,401.79631658053836L449.0454818403407,322.1481582902692A108.75,108.75 0,0,1 440.9196864019094,328.99368442073626Z" style="pointer-events: all; stroke-width: 1; fill: rgb(152, 78, 163); fill-opacity: 1; stroke: rgb(255, 255, 255); stroke-opacity: 1; opacity: 1;"/><g class="slicetext"><text data-notex="1" class="slicetext" text-anchor="middle" x="0" y="0" style="font-family: 'Open Sans', verdana, arial, sans-serif; font-size: 12px; fill: rgb(255, 255, 255); fill-opacity: 1; white-space: pre;" transform="translate(501.6180328576621,399.7829515587897)rotate(49.88774493821961)">loan</text></g></g><g class="slice"><path class="surface" d="M449.0454818403407,322.1481582902692L523.0909636806814,401.79631658053836A217.5,217.5 0,0,0 539.1250420197828,385.22077838214216L457.0625210098914,313.8603891910711A108.75,108.75 0,0,1 449.0454818403407,322.1481582902692Z" style="pointer-events: all; stroke-width: 1; fill: rgb(152, 78, 163); fill-opacity: 1; stroke: rgb(255, 255, 255); stroke-opacity: 1; opacity: 1;"/><g class="slicetext"><text data-notex="1" class="slicetext" text-anchor="middle" x="0" y="0" style="font-family: 'Open Sans', verdana, arial, sans-serif; font-size: 12px; fill: rgb(255, 255, 255); fill-opacity: 1; white-space: pre;" transform="translate(508.80124329815965,378.19134572506766)rotate(44.048731098287476)">quarter</text></g></g><g class="slice"><path class="surface" d="M457.0625210098914,313.8603891910711L539.1250420197828,385.22077838214216A217.5,217.5 0,0,0 568.0173665394639,342.75241251047413L471.50868326973193,292.6262062552371A108.75,108.75 0,0,1 457.0625210098914,313.8603891910711Z" style="pointer-events: all; stroke-width: 1; fill: rgb(152, 78, 163); fill-opacity: 1; stroke: rgb(255, 255, 255); stroke-opacity: 1; opacity: 1;"/><g class="slicetext"><text data-notex="1" class="slicetext" text-anchor="middle" x="0" y="0" style="font-family: 'Open Sans', verdana, arial, sans-serif; font-size: 12px; fill: rgb(255, 255, 255); fill-opacity: 1; white-space: pre;" transform="translate(535.8376133005573,356.42197617146394)">growth</text></g></g><g class="slice"><path class="surface" d="M477.64127127949854,278.4351072090844L580.2825425589971,314.3702144181688A217.5,217.5 0,0,0 582.7300745693619,306.9551481218323L478.86503728468097,274.72757406091614A108.75,108.75 0,0,1 477.64127127949854,278.4351072090844Z" style="pointer-events: all; stroke-width: 1; fill: rgb(77, 175, 74); fill-opacity: 1; stroke: rgb(255, 255, 255); stroke-opacity: 1; opacity: 1;"/><g class="slicetext"><text data-notex="1" class="slicetext" text-anchor="middle" x="0" y="0" style="font-family: 'Open Sans', verdana, arial, sans-serif; font-size: 12px; fill: rgb(68, 68, 68); fill-opacity: 1; white-space: pre;" transform="translate(560.6480243686017,305.7094062715792)scale(0.4075998181269868)rotate(18.266792921749357)">monetary_policy</text></g></g><g class="slice"><path class="surface" d="M478.86503728468097,274.72757406091614L582.7300745693619,306.9551481218323A217.5,217.5 0,0,0 585.1223723509553,298.6679502706525L480.06118617547764,270.5839751353262A108.75,108.75 0,0,1 478.86503728468097,274.72757406091614Z" style="pointer-events: all; stroke-width: 1; fill: rgb(77, 175, 74); fill-opacity: 1; stroke: rgb(255, 255, 255); stroke-opacity: 1; opacity: 1;"/><g class="slicetext"><text data-notex="1" class="slicetext" text-anchor="middle" x="0" y="0" style="font-family: 'Open Sans', verdana, arial, sans-serif; font-size: 12px; fill: rgb(68, 68, 68); fill-opacity: 1; white-space: pre;" transform="translate(573.0509778754989,302.03421445518546)scale(0.5043109518994651)rotate(16.10204882522055)">central</text></g></g><g class="slice"><path class="surface" d="M480.06118617547764,270.5839751353262L585.1223723509553,298.6679502706525A217.5,217.5 0,0,0 587.194171924511,290.24812458381L481.0970859622555,266.37406229190503A108.75,108.75 0,0,1 480.06118617547764,270.5839751353262Z" style="pointer-events: all; stroke-width: 1; fill: rgb(77, 175, 74); fill-opacity: 1; stroke: rgb(255, 255, 255); stroke-opacity: 1; opacity: 1;"/><g class="slicetext"><text data-notex="1" class="slicetext" text-anchor="middle" x="0" y="0" style="font-family: 'Open Sans', verdana, arial, sans-serif; font-size: 12px; fill: rgb(68, 68, 68); fill-opacity: 1; white-space: pre;" transform="translate(567.6035702541499,292.0518081478401)scale(0.4659630054632761)rotate(13.823691840359572)">interest_rate</text></g></g><g class="slice"><path class="surface" d="M481.0970859622555,266.37406229190503L587.194171924511,290.24812458381A217.5,217.5 0,0,0 589.2801911947978,279.78605183605373L482.1400955973989,261.14302591802686A108.75,108.75 0,0,1 481.0970859622555,266.37406229190503Z" style="pointer-events: all; stroke-width: 1; fill: rgb(77, 175, 74); fill-opacity: 1; stroke: rgb(255, 255, 255); stroke-opacity: 1; opacity: 1;"/><g class="slicetext"><text data-notex="1" class="slicetext" text-anchor="middle" x="0" y="0" style="font-family: 'Open Sans', verdana, arial, sans-serif; font-size: 12px; fill: rgb(68, 68, 68); fill-opacity: 1; white-space: pre;" transform="translate(568.8768493877799,283.7685934477052)scale(0.5691821172938026)rotate(11.276251698922067)">conference</text></g></g><g class="slice"><path class="surface" d="M482.1400955973989,261.14302591802686L589.2801911947978,279.78605183605373A217.5,217.5 0,0,0 591.0974443282787,267.16058707302994L483.04872216413935,254.83029353651497A108.75,108.75 0,0,1 482.1400955973989,261.14302591802686Z" style="pointer-events: all; stroke-width: 1; fill: rgb(77, 175, 74); fill-opacity: 1; stroke: rgb(255, 255, 255); stroke-opacity: 1; opacity: 1;"/><g class="slicetext"><text data-notex="1" class="slicetext" text-anchor="middle" x="0" y="0" style="font-family: 'Open Sans', verdana, arial, sans-serif; font-size: 12px; fill: rgb(68, 68, 68); fill-opacity: 1; white-space: pre;" transform="translate(580.4851327189954,275.51368506125647)scale(0.7560024365095065)rotate(8.19064524433179)">rate</text></g></g><g class="slice"><path class="surface" d="M483.04872216413935,254.83029353651497L591.0974443282787,267.16058707302994A217.5,217.5 0,0,0 592.1862493848313,254.17831658030718L483.59312469241564,248.3391582901536A108.75,108.75 0,0,1 483.04872216413935,254.83029353651497Z" style="pointer-events: all; stroke-width: 1; fill: rgb(77, 175, 74); fill-opacity: 1; stroke: rgb(255, 255, 255); stroke-opacity: 1; opacity: 1;"/><g class="slicetext"><text data-notex="1" class="slicetext" text-anchor="middle" x="0" y="0" style="font-family: 'Open Sans', verdana, arial, sans-serif; font-size: 12px; fill: rgb(68, 68, 68); fill-opacity: 1; white-space: pre;" transform="translate(580.7709927555422,263.19862730468844)scale(0.7619690860197839)rotate(4.794098253253139)">euro</text></g></g><g class="slice"><path class="surface" d="M483.59312469241564,248.3391582901536L592.1862493848313,254.17831658030718A217.5,217.5 0,0,0 592.4939799347604,240.8817626447231L483.7469899673802,241.69088132236155A108.75,108.75 0,0,1 483.59312469241564,248.3391582901536Z" style="pointer-events: all; stroke-width: 1; fill: rgb(77, 175, 74); fill-opacity: 1; stroke: rgb(255, 255, 255); stroke-opacity: 1; opacity: 1;"/><g class="slicetext"><text data-notex="1" class="slicetext" text-anchor="middle" x="0" y="0" style="font-family: 'Open Sans', verdana, arial, sans-serif; font-size: 12px; fill: rgb(68, 68, 68); fill-opacity: 1; white-space: pre;" transform="translate(582.6548840901199,250.8436117878077)scale(0.7859503368025671)rotate(1.3257957537541643)">vice</text></g></g><g class="slice"><path class="surface" d="M483.7469899673802,241.69088132236155L592.4939799347604,240.8817626447231A217.5,217.5 0,0,0 591.9341638063601,226.82139758666744L483.46708190318003,234.66069879333372A108.75,108.75 0,0,1 483.7469899673802,241.69088132236155Z" style="pointer-events: all; stroke-width: 1; fill: rgb(77, 175, 74); fill-opacity: 1; stroke: rgb(255, 255, 255); stroke-opacity: 1; opacity: 1;"/><g class="slicetext"><text data-notex="1" class="slicetext" text-anchor="middle" x="0" y="0" style="font-family: 'Open Sans', verdana, arial, sans-serif; font-size: 12px; fill: rgb(68, 68, 68); fill-opacity: 1; white-space: pre;" transform="translate(578.5443078931255,237.9924199460379)scale(0.7986062686449288)rotate(-2.2800381368838885)">press</text></g></g><g class="slice"><path class="surface" d="M483.46708190318003,234.66069879333372L591.9341638063601,226.82139758666744A217.5,217.5 0,0,0 590.4539317554346,212.73671236028304L482.7269658777173,227.61835618014152A108.75,108.75 0,0,1 483.46708190318003,234.66069879333372Z" style="pointer-events: all; stroke-width: 1; fill: rgb(77, 175, 74); fill-opacity: 1; stroke: rgb(255, 255, 255); stroke-opacity: 1; opacity: 1;"/><g class="slicetext"><text data-notex="1" class="slicetext" text-anchor="middle" x="0" y="0" style="font-family: 'Open Sans', verdana, arial, sans-serif; font-size: 12px; fill: rgb(68, 68, 68); fill-opacity: 1; white-space: pre;" transform="translate(571.6754166359177,225.22020368085836)scale(0.7491708065042766)rotate(-5.999484915854225)">outcome</text></g></g><g class="slice"><path class="surface" d="M482.7269658777173,227.61835618014152L590.4539317554346,212.73671236028304A217.5,217.5 0,0,0 587.8758408303926,197.88916733848868L481.4379204151963,220.19458366924434A108.75,108.75 0,0,1 482.7269658777173,227.61835618014152Z" style="pointer-events: all; stroke-width: 1; fill: rgb(77, 175, 74); fill-opacity: 1; stroke: rgb(255, 255, 255); stroke-opacity: 1; opacity: 1;"/><g class="slicetext"><text data-notex="1" class="slicetext" text-anchor="middle" x="0" y="0" style="font-family: 'Open Sans', verdana, arial, sans-serif; font-size: 12px; fill: rgb(68, 68, 68); fill-opacity: 1; white-space: pre;" transform="translate(567.4947068042378,212.60889240478033)scale(0.7735796216036999)rotate(-9.850483460261955)">operation</text></g></g><g class="slice"><path class="surface" d="M481.4379204151963,220.19458366924434L587.8758408303926,197.88916733848868A217.5,217.5 0,0,0 584.1267805442897,182.73178387152132L479.56339027214483,212.61589193576066A108.75,108.75 0,0,1 481.4379204151963,220.19458366924434Z" style="pointer-events: all; stroke-width: 1; fill: rgb(77, 175, 74); fill-opacity: 1; stroke: rgb(255, 255, 255); stroke-opacity: 1; opacity: 1;"/><g class="slicetext"><text data-notex="1" class="slicetext" text-anchor="middle" x="0" y="0" style="font-family: 'Open Sans', verdana, arial, sans-serif; font-size: 12px; fill: rgb(68, 68, 68); fill-opacity: 1; white-space: pre;" transform="translate(573.236835343701,197.5660345560677)scale(0.8841054185824013)rotate(-13.892830027124035)">bank</text></g></g><g class="slice"><path class="surface" d="M479.56339027214483,212.61589193576066L584.1267805442897,182.73178387152132A217.5,217.5 0,0,0 579.0810265806899,167.28574211114125L477.04051329034496,204.89287105557062A108.75,108.75 0,0,1 479.56339027214483,212.61589193576066Z" style="pointer-events: all; stroke-width: 1; fill: rgb(77, 175, 74); fill-opacity: 1; stroke: rgb(255, 255, 255); stroke-opacity: 1; opacity: 1;"/><g class="slicetext"><text data-notex="1" class="slicetext" text-anchor="middle" x="0" y="0" style="font-family: 'Open Sans', verdana, arial, sans-serif; font-size: 12px; fill: rgb(68, 68, 68); fill-opacity: 1; white-space: pre;" transform="translate(559.9960520240853,185.9593112322636)scale(0.8221169567491631)rotate(-18.090646862230187)">president</text></g></g><g class="slice"><path class="surface" d="M477.04051329034496,204.89287105557062L579.0810265806899,167.28574211114125A217.5,217.5 0,0,0 571.3422883590299,148.92673564559414L473.17114417951495,195.71336782279707A108.75,108.75 0,0,1 477.04051329034496,204.89287105557062Z" style="pointer-events: all; stroke-width: 1; fill: rgb(77, 175, 74); fill-opacity: 1; stroke: rgb(255, 255, 255); stroke-opacity: 1; opacity: 1;"/><g class="slicetext"><text data-notex="1" class="slicetext" text-anchor="middle" x="0" y="0" style="font-family: 'Open Sans', verdana, arial, sans-serif; font-size: 12px; fill: rgb(68, 68, 68); fill-opacity: 1; white-space: pre;" transform="translate(553.9278946873698,171.93200845817634)scale(0.9940070568429676)rotate(-22.856528138997703)">meeting</text></g></g><g class="slice"><path class="surface" d="M473.17114417951495,195.71336782279707L571.3422883590299,148.92673564559414A217.5,217.5 0,0,0 558.8474172808568,126.2830599303246L466.9237086404284,184.3915299651623A108.75,108.75 0,0,1 473.17114417951495,195.71336782279707Z" style="pointer-events: all; stroke-width: 1; fill: rgb(77, 175, 74); fill-opacity: 1; stroke: rgb(255, 255, 255); stroke-opacity: 1; opacity: 1;"/><g class="slicetext"><text data-notex="1" class="slicetext" text-anchor="middle" x="0" y="0" style="font-family: 'Open Sans', verdana, arial, sans-serif; font-size: 12px; fill: rgb(68, 68, 68); fill-opacity: 1; white-space: pre;" transform="translate(553.3091780859774,149.2479180324815)rotate(-28.890090064525225)">ecb</text></g></g><g class="slice"><path class="surface" d="M466.9237086404284,184.3915299651623L558.8474172808568,126.2830599303246A217.5,217.5 0,0,0 534.9280102012963,95.09144681174672L454.96400510064814,168.79572340587336A108.75,108.75 0,0,1 466.9237086404284,184.3915299651623Z" style="pointer-events: all; stroke-width: 1; fill: rgb(77, 175, 74); fill-opacity: 1; stroke: rgb(255, 255, 255); stroke-opacity: 1; opacity: 1;"/><g class="slicetext"><text data-notex="1" class="slicetext" text-anchor="middle" x="0" y="0" style="font-family: 'Open Sans', verdana, arial, sans-serif; font-size: 12px; fill: rgb(68, 68, 68); fill-opacity: 1; white-space: pre;" transform="translate(507.0457893560758,146.7307222061166)scale(0.9682070918255923)rotate(-37.482931790379666)">governing_council</text></g></g><g class="slice"><path class="surface" d="M445.5522960009373,159.7417011472799L516.1045920018746,76.98340229455985A217.5,217.5 0,0,0 510.25102832723286,72.16676972350331L442.62551416361646,157.33338486175165A108.75,108.75 0,0,1 445.5522960009373,159.7417011472799Z" style="pointer-events: all; stroke-width: 1; fill: rgb(55, 126, 184); fill-opacity: 1; stroke: rgb(255, 255, 255); stroke-opacity: 1; opacity: 1;"/><g class="slicetext"><text data-notex="1" class="slicetext" text-anchor="middle" x="0" y="0" style="font-family: 'Open Sans', verdana, arial, sans-serif; font-size: 12px; fill: rgb(255, 255, 255); fill-opacity: 1; white-space: pre;" transform="translate(502.18191662648826,90.79388746143208)scale(0.40322239660447357)rotate(-50.55058214004134)">implementation</text></g></g><g class="slice"><path class="surface" d="M442.62551416361646,157.33338486175165L510.25102832723286,72.16676972350331A217.5,217.5 0,0,0 504.0894188210208,67.45094416578226L439.5447094105104,154.97547208289114A108.75,108.75 0,0,1 442.62551416361646,157.33338486175165Z" style="pointer-events: all; stroke-width: 1; fill: rgb(55, 126, 184); fill-opacity: 1; stroke: rgb(255, 255, 255); stroke-opacity: 1; opacity: 1;"/><g class="slicetext"><text data-notex="1" class="slicetext" text-anchor="middle" x="0" y="0" style="font-family: 'Open Sans', verdana, arial, sans-serif; font-size: 12px; fill: rgb(255, 255, 255); fill-opacity: 1; white-space: pre;" transform="translate(501.86274984199986,80.08457377125278)scale(0.45124940021197524)rotate(-52.571142048453055)">stability</text></g></g><g class="slice"><path class="surface" d="M439.5447094105104,154.97547208289114L504.0894188210208,67.45094416578226A217.5,217.5 0,0,0 497.67923131561326,62.90028896512595L436.33961565780663,152.70014448256296A108.75,108.75 0,0,1 439.5447094105104,154.97547208289114Z" style="pointer-events: all; stroke-width: 1; fill: rgb(55, 126, 184); fill-opacity: 1; stroke: rgb(255, 255, 255); stroke-opacity: 1; opacity: 1;"/><g class="slicetext"><text data-notex="1" class="slicetext" text-anchor="middle" x="0" y="0" style="font-family: 'Open Sans', verdana, arial, sans-serif; font-size: 12px; fill: rgb(255, 255, 255); fill-opacity: 1; white-space: pre;" transform="translate(497.0876526394265,74.14613538171385)scale(0.4659817018733638)rotate(-54.62868268794284)">labour</text></g></g><g class="slice"><path class="surface" d="M436.33961565780663,152.70014448256296L497.67923131561326,62.90028896512595A217.5,217.5 0,0,0 491.0224363914509,58.52977345833452L433.01121819572546,150.51488672916724A108.75,108.75 0,0,1 436.33961565780663,152.70014448256296Z" style="pointer-events: all; stroke-width: 1; fill: rgb(55, 126, 184); fill-opacity: 1; stroke: rgb(255, 255, 255); stroke-opacity: 1; opacity: 1;"/><g class="slicetext"><text data-notex="1" class="slicetext" text-anchor="middle" x="0" y="0" style="font-family: 'Open Sans', verdana, arial, sans-serif; font-size: 12px; fill: rgb(255, 255, 255); fill-opacity: 1; white-space: pre;" transform="translate(491.20052015811086,69.4029006162883)scale(0.4743832312995061)rotate(-56.7131184045802)">public</text></g></g><g class="slice"><path class="surface" d="M433.01121819572546,150.51488672916724L491.0224363914509,58.52977345833452A217.5,217.5 0,0,0 484.0334789174689,54.30342597391984L429.51673945873443,148.40171298695992A108.75,108.75 0,0,1 433.01121819572546,150.51488672916724Z" style="pointer-events: all; stroke-width: 1; fill: rgb(55, 126, 184); fill-opacity: 1; stroke: rgb(255, 255, 255); stroke-opacity: 1; opacity: 1;"/><g class="slicetext"><text data-notex="1" class="slicetext" text-anchor="middle" x="0" y="0" style="font-family: 'Open Sans', verdana, arial, sans-serif; font-size: 12px; fill: rgb(255, 255, 255); fill-opacity: 1; white-space: pre;" transform="translate(479.9601422173419,72.77678912736513)scale(0.44220706829496476)rotate(-58.837896736939115)">consolidation</text></g></g><g class="slice"><path class="surface" d="M429.51673945873443,148.40171298695992L484.0334789174689,54.30342597391984A217.5,217.5 0,0,0 475.6257768631545,49.6770163318526L425.3128884315772,146.0885081659263A108.75,108.75 0,0,1 429.51673945873443,148.40171298695992Z" style="pointer-events: all; stroke-width: 1; fill: rgb(55, 126, 184); fill-opacity: 1; stroke: rgb(255, 255, 255); stroke-opacity: 1; opacity: 1;"/><g class="slicetext"><text data-notex="1" class="slicetext" text-anchor="middle" x="0" y="0" style="font-family: 'Open Sans', verdana, arial, sans-serif; font-size: 12px; fill: rgb(255, 255, 255); fill-opacity: 1; white-space: pre;" transform="translate(474.9889424704725,65.8221282226774)scale(0.5393862013671229)rotate(-61.1778356864794)">measure</text></g></g><g class="slice"><path class="surface" d="M425.3128884315772,146.0885081659263L475.6257768631545,49.6770163318526A217.5,217.5 0,0,0 465.91063162122686,44.910761785390775L420.45531581061346,143.7053808926954A108.75,108.75 0,0,1 425.3128884315772,146.0885081659263Z" style="pointer-events: all; stroke-width: 1; fill: rgb(55, 126, 184); fill-opacity: 1; stroke: rgb(255, 255, 255); stroke-opacity: 1; opacity: 1;"/><g class="slicetext"><text data-notex="1" class="slicetext" text-anchor="middle" x="0" y="0" style="font-family: 'Open Sans', verdana, arial, sans-serif; font-size: 12px; fill: rgb(255, 255, 255); fill-opacity: 1; white-space: pre;" transform="translate(465.3838087022216,64.28803859255598)scale(0.5891297213123667)rotate(-63.86741063893936)">economic</text></g></g><g class="slice"><path class="surface" d="M420.45531581061346,143.7053808926954L465.91063162122686,44.910761785390775A217.5,217.5 0,0,0 452.8815218788948,39.42189052035366L413.9407609394474,140.96094526017683A108.75,108.75 0,0,1 420.45531581061346,143.7053808926954Z" style="pointer-events: all; stroke-width: 1; fill: rgb(55, 126, 184); fill-opacity: 1; stroke: rgb(255, 255, 255); stroke-opacity: 1; opacity: 1;"/><g class="slicetext"><text data-notex="1" class="slicetext" text-anchor="middle" x="0" y="0" style="font-family: 'Open Sans', verdana, arial, sans-serif; font-size: 12px; fill: rgb(255, 255, 255); fill-opacity: 1; white-space: pre;" transform="translate(455.9213054646492,59.36543526736785)scale(0.7722328918543389)rotate(-67.15540105793508)">market</text></g></g><g class="slice"><path class="surface" d="M413.9407609394474,140.96094526017683L452.8815218788948,39.42189052035366A217.5,217.5 0,0,0 438.54762676870473,34.490507110696L406.77381338435237,138.495253555348A108.75,108.75 0,0,1 413.9407609394474,140.96094526017683Z" style="pointer-events: all; stroke-width: 1; fill: rgb(55, 126, 184); fill-opacity: 1; stroke: rgb(255, 255, 255); stroke-opacity: 1; opacity: 1;"/><g class="slicetext"><text data-notex="1" class="slicetext" text-anchor="middle" x="0" y="0" style="font-family: 'Open Sans', verdana, arial, sans-serif; font-size: 12px; fill: rgb(255, 255, 255); fill-opacity: 1; white-space: pre;" transform="translate(441.54983232985035,59.78254002556818)scale(0.7750486018365716)rotate(-71.01491186631881)">structural</text></g></g><g class="slice"><path class="surface" d="M406.77381338435237,138.495253555348L438.54762676870473,34.490507110696A217.5,217.5 0,0,0 422.5859925048368,30.26941003396891L398.7929962524184,136.38470501698447A108.75,108.75 0,0,1 406.77381338435237,138.495253555348Z" style="pointer-events: all; stroke-width: 1; fill: rgb(55, 126, 184); fill-opacity: 1; stroke: rgb(255, 255, 255); stroke-opacity: 1; opacity: 1;"/><g class="slicetext"><text data-notex="1" class="slicetext" text-anchor="middle" x="0" y="0" style="font-family: 'Open Sans', verdana, arial, sans-serif; font-size: 12px; fill: rgb(255, 255, 255); fill-opacity: 1; white-space: pre;" transform="translate(429.70378313668664,51.273488652666)scale(0.8880105018959255)rotate(-75.18707794654415)">reform</text></g></g><g class="slice"><path class="surface" d="M398.7929962524184,136.38470501698447L422.5859925048368,30.26941003396891A217.5,217.5 0,0,0 404.40407347224095,26.996750689835153L389.7020367361205,134.74837534491758A108.75,108.75 0,0,1 398.7929962524184,136.38470501698447Z" style="pointer-events: all; stroke-width: 1; fill: rgb(55, 126, 184); fill-opacity: 1; stroke: rgb(255, 255, 255); stroke-opacity: 1; opacity: 1;"/><g class="slicetext"><text data-notex="1" class="slicetext" text-anchor="middle" x="0" y="0" style="font-family: 'Open Sans', verdana, arial, sans-serif; font-size: 12px; fill: rgb(255, 255, 255); fill-opacity: 1; white-space: pre;" transform="translate(414.60856770866906,47.76748402472565)scale(0.9967897391705564)rotate(-79.79628903041919)">policy</text></g></g><g class="slice"><path class="surface" d="M389.7020367361205,134.74837534491758L404.40407347224095,26.996750689835153A217.5,217.5 0,0,0 385.2707072503974,25.242635170688317L380.13535362519866,133.87131758534417A108.75,108.75 0,0,1 389.7020367361205,134.74837534491758Z" style="pointer-events: all; stroke-width: 1; fill: rgb(55, 126, 184); fill-opacity: 1; stroke: rgb(255, 255, 255); stroke-opacity: 1; opacity: 1;"/><g class="slicetext"><text data-notex="1" class="slicetext" text-anchor="middle" x="0" y="0" style="font-family: 'Open Sans', verdana, arial, sans-serif; font-size: 12px; fill: rgb(255, 255, 255); fill-opacity: 1; white-space: pre;" transform="translate(397.04684714369506,50.20299914116955)scale(0.9775393371100355)rotate(-84.76185988650093)">country</text></g></g><g class="slice"><path class="surface" d="M380.13535362519866,133.87131758534417L385.2707072503974,25.242635170688317A217.5,217.5 0,0,0 365.44516907485513,25.2099744443112L370.22258453742757,133.85498722215561A108.75,108.75 0,0,1 380.13535362519866,133.87131758534417Z" style="pointer-events: all; stroke-width: 1; fill: rgb(55, 126, 184); fill-opacity: 1; stroke: rgb(255, 255, 255); stroke-opacity: 1; opacity: 1;"/><g class="slicetext"><text data-notex="1" class="slicetext" text-anchor="middle" x="0" y="0" style="font-family: 'Open Sans', verdana, arial, sans-serif; font-size: 12px; fill: rgb(255, 255, 255); fill-opacity: 1; white-space: pre;" transform="translate(379.8216127520614,47.280066499097366)rotate(-89.9056106286859)">growth</text></g></g><g class="slice"><path class="surface" d="M370.22258453742757,133.85498722215561L365.44516907485513,25.2099744443112A217.5,217.5 0,0,0 341.78392057507443,27.551303638200608L358.39196028753724,135.0256518191003A108.75,108.75 0,0,1 370.22258453742757,133.85498722215561Z" style="pointer-events: all; stroke-width: 1; fill: rgb(55, 126, 184); fill-opacity: 1; stroke: rgb(255, 255, 255); stroke-opacity: 1; opacity: 1;"/><g class="slicetext"><text data-notex="1" class="slicetext" text-anchor="middle" x="0" y="0" style="font-family: 'Open Sans', verdana, arial, sans-serif; font-size: 12px; fill: rgb(255, 255, 255); fill-opacity: 1; white-space: pre;" transform="translate(352.43381607110973,60.14697599798917)rotate(84.34886127794988)">euro_area</text></g></g><g class="slice"><path class="surface" d="M358.39196028753724,135.0256518191003L341.78392057507443,27.551303638200608A217.5,217.5 0,0,0 317.8297730938506,32.64811138448292L346.4148865469253,137.57405569224147A108.75,108.75 0,0,1 358.39196028753724,135.0256518191003Z" style="pointer-events: all; stroke-width: 1; fill: rgb(55, 126, 184); fill-opacity: 1; stroke: rgb(255, 255, 255); stroke-opacity: 1; opacity: 1;"/><g class="slicetext"><text data-notex="1" class="slicetext" text-anchor="middle" x="0" y="0" style="font-family: 'Open Sans', verdana, arial, sans-serif; font-size: 12px; fill: rgb(255, 255, 255); fill-opacity: 1; white-space: pre;" transform="translate(329.81730396644855,51.771545976928905)rotate(77.98810829483278)">fiscal</text></g></g><g class="slice"><path class="surface" d="M335.2722783279856,141.26625744964798L295.5445566559712,40.03251489929593A217.5,217.5 0,0,0 287.49321507095004,43.37990409960878L331.246607535475,142.9399520498044A108.75,108.75 0,0,1 335.2722783279856,141.26625744964798Z" style="pointer-events: all; stroke-width: 1; fill: rgb(228, 26, 28); fill-opacity: 1; stroke: rgb(255, 255, 255); stroke-opacity: 1; opacity: 1;"/><g class="slicetext"><text data-notex="1" class="slicetext" text-anchor="middle" x="0" y="0" style="font-family: 'Open Sans', verdana, arial, sans-serif; font-size: 12px; fill: rgb(255, 255, 255); fill-opacity: 1; white-space: pre;" transform="translate(294.5584449648956,54.832989155241144)scale(0.4961544464224498)rotate(67.42463475990314)">pressure</text></g></g><g class="slice"><path class="surface" d="M331.246607535475,142.9399520498044L287.49321507095004,43.37990409960878A217.5,217.5 0,0,0 279.19199237198916,47.238442917324306L327.0959961859946,144.86922145866214A108.75,108.75 0,0,1 331.246607535475,142.9399520498044Z" style="pointer-events: all; stroke-width: 1; fill: rgb(228, 26, 28); fill-opacity: 1; stroke: rgb(255, 255, 255); stroke-opacity: 1; opacity: 1;"/><g class="slicetext"><text data-notex="1" class="slicetext" text-anchor="middle" x="0" y="0" style="font-family: 'Open Sans', verdana, arial, sans-serif; font-size: 12px; fill: rgb(255, 255, 255); fill-opacity: 1; white-space: pre;" transform="translate(284.27357344456345,53.19531205452182)scale(0.5510740015165102)rotate(65.07025423084457)">staff</text></g></g><g class="slice"><path class="surface" d="M327.0959961859946,144.86922145866214L279.19199237198916,47.238442917324306A217.5,217.5 0,0,0 270.91199028151186,51.52372861309726L322.95599514075593,147.01186430654863A108.75,108.75 0,0,1 327.0959961859946,144.86922145866214Z" style="pointer-events: all; stroke-width: 1; fill: rgb(228, 26, 28); fill-opacity: 1; stroke: rgb(255, 255, 255); stroke-opacity: 1; opacity: 1;"/><g class="slicetext"><text data-notex="1" class="slicetext" text-anchor="middle" x="0" y="0" style="font-family: 'Open Sans', verdana, arial, sans-serif; font-size: 12px; fill: rgb(255, 255, 255); fill-opacity: 1; white-space: pre;" transform="translate(276.9682199032341,58.51143680218948)scale(0.5544061982588023)rotate(62.636335968716025)">wage</text></g></g><g class="slice"><path class="surface" d="M322.95599514075593,147.01186430654863L270.91199028151186,51.52372861309726A217.5,217.5 0,0,0 262.8025496078549,56.172379595771844L318.90127480392744,149.33618979788594A108.75,108.75 0,0,1 322.95599514075593,147.01186430654863Z" style="pointer-events: all; stroke-width: 1; fill: rgb(228, 26, 28); fill-opacity: 1; stroke: rgb(255, 255, 255); stroke-opacity: 1; opacity: 1;"/><g class="slicetext"><text data-notex="1" class="slicetext" text-anchor="middle" x="0" y="0" style="font-family: 'Open Sans', verdana, arial, sans-serif; font-size: 12px; fill: rgb(255, 255, 255); fill-opacity: 1; white-space: pre;" transform="translate(270.4922981022779,65.07724402125099)scale(0.5402014805739345)rotate(60.17696563200491)">energy</text></g></g><g class="slice"><path class="surface" d="M318.90127480392744,149.33618979788594L262.8025496078549,56.172379595771844A217.5,217.5 0,0,0 254.4375461614258,61.47253047003707L314.7187730807129,151.98626523501855A108.75,108.75 0,0,1 318.90127480392744,149.33618979788594Z" style="pointer-events: all; stroke-width: 1; fill: rgb(228, 26, 28); fill-opacity: 1; stroke: rgb(255, 255, 255); stroke-opacity: 1; opacity: 1;"/><g class="slicetext"><text data-notex="1" class="slicetext" text-anchor="middle" x="0" y="0" style="font-family: 'Open Sans', verdana, arial, sans-serif; font-size: 12px; fill: rgb(255, 255, 255); fill-opacity: 1; white-space: pre;" transform="translate(261.80385900796045,68.74007248811243)scale(0.5819308709216101)rotate(57.641239071546806)">effect</text></g></g><g class="slice"><path class="surface" d="M314.7187730807129,151.98626523501855L254.4375461614258,61.47253047003707A217.5,217.5 0,0,0 246.10835011606858,67.30527236757939L310.5541750580343,154.9026361837897A108.75,108.75 0,0,1 314.7187730807129,151.98626523501855Z" style="pointer-events: all; stroke-width: 1; fill: rgb(228, 26, 28); fill-opacity: 1; stroke: rgb(255, 255, 255); stroke-opacity: 1; opacity: 1;"/><g class="slicetext"><text data-notex="1" class="slicetext" text-anchor="middle" x="0" y="0" style="font-family: 'Open Sans', verdana, arial, sans-serif; font-size: 12px; fill: rgb(255, 255, 255); fill-opacity: 1; white-space: pre;" transform="translate(260.7862195779468,83.53976925265954)scale(0.5274503413742477)rotate(54.997341194113346)">inflation_rate</text></g></g><g class="slice"><path class="surface" d="M310.5541750580343,154.9026361837897L246.10835011606858,67.30527236757939A217.5,217.5 0,0,0 236.41602118508257,74.86727403091447L305.7080105925413,158.68363701545724A108.75,108.75 0,0,1 310.5541750580343,154.9026361837897Z" style="pointer-events: all; stroke-width: 1; fill: rgb(228, 26, 28); fill-opacity: 1; stroke: rgb(255, 255, 255); stroke-opacity: 1; opacity: 1;"/><g class="slicetext"><text data-notex="1" class="slicetext" text-anchor="middle" x="0" y="0" style="font-family: 'Open Sans', verdana, arial, sans-serif; font-size: 12px; fill: rgb(255, 255, 255); fill-opacity: 1; white-space: pre;" transform="translate(251.52923447148936,88.97964065397727)scale(0.6471108259922494)rotate(52.03847389372282)">euro_area</text></g></g><g class="slice"><path class="surface" d="M305.7080105925413,158.68363701545724L236.41602118508257,74.86727403091447A217.5,217.5 0,0,0 226.58273806926067,83.50765313706978L300.79136903463035,163.0038265685349A108.75,108.75 0,0,1 305.7080105925413,158.68363701545724Z" style="pointer-events: all; stroke-width: 1; fill: rgb(228, 26, 28); fill-opacity: 1; stroke: rgb(255, 255, 255); stroke-opacity: 1; opacity: 1;"/><g class="slicetext"><text data-notex="1" class="slicetext" text-anchor="middle" x="0" y="0" style="font-family: 'Open Sans', verdana, arial, sans-serif; font-size: 12px; fill: rgb(255, 255, 255); fill-opacity: 1; white-space: pre;" transform="translate(238.4355187225486,87.08121669570158)scale(0.86138102082482)rotate(-41.30535603472663)">oil</text></g></g><g class="slice"><path class="surface" d="M300.79136903463035,163.0038265685349L226.58273806926067,83.50765313706978A217.5,217.5 0,0,0 217.23715058903167,92.77647697929314L296.11857529451584,167.63823848964657A108.75,108.75 0,0,1 300.79136903463035,163.0038265685349Z" style="pointer-events: all; stroke-width: 1; fill: rgb(228, 26, 28); fill-opacity: 1; stroke: rgb(255, 255, 255); stroke-opacity: 1; opacity: 1;"/><g class="slicetext"><text data-notex="1" class="slicetext" text-anchor="middle" x="0" y="0" style="font-family: 'Open Sans', verdana, arial, sans-serif; font-size: 12px; fill: rgb(255, 255, 255); fill-opacity: 1; white-space: pre;" transform="translate(226.3338951357966,97.55326693169398)scale(0.7746990565190791)rotate(45.2362797012031)">hicp</text></g></g><g class="slice"><path class="surface" d="M296.11857529451584,167.63823848964657L217.23715058903167,92.77647697929314A217.5,217.5 0,0,0 208.31407157242862,102.77866567972325L291.6570357862143,172.63933283986162A108.75,108.75 0,0,1 296.11857529451584,167.63823848964657Z" style="pointer-events: all; stroke-width: 1; fill: rgb(228, 26, 28); fill-opacity: 1; stroke: rgb(255, 255, 255); stroke-opacity: 1; opacity: 1;"/><g class="slicetext"><text data-notex="1" class="slicetext" text-anchor="middle" x="0" y="0" style="font-family: 'Open Sans', verdana, arial, sans-serif; font-size: 12px; fill: rgb(255, 255, 255); fill-opacity: 1; white-space: pre;" transform="translate(226.77825856235773,114.46933772186055)scale(0.6964374242003061)rotate(41.73655581593641)">projection</text></g></g><g class="slice"><path class="surface" d="M291.6570357862143,172.63933283986162L208.31407157242862,102.77866567972325A217.5,217.5 0,0,0 198.99666430051118,114.71472767704003L286.9983321502556,178.60736383852003A108.75,108.75 0,0,1 291.6570357862143,172.63933283986162Z" style="pointer-events: all; stroke-width: 1; fill: rgb(228, 26, 28); fill-opacity: 1; stroke: rgb(255, 255, 255); stroke-opacity: 1; opacity: 1;"/><g class="slicetext"><text data-notex="1" class="slicetext" text-anchor="middle" x="0" y="0" style="font-family: 'Open Sans', verdana, arial, sans-serif; font-size: 12px; fill: rgb(255, 255, 255); fill-opacity: 1; white-space: pre;" transform="translate(217.56992404297392,124.156747080578)scale(0.7967143270461089)rotate(37.97594816620017)">increase</text></g></g><g class="slice"><path class="surface" d="M286.9983321502556,178.60736383852003L198.99666430051118,114.71472767704003A217.5,217.5 0,0,0 190.25132748016048,127.72117790220582L282.62566374008026,185.1105889511029A108.75,108.75 0,0,1 286.9983321502556,178.60736383852003Z" style="pointer-events: all; stroke-width: 1; fill: rgb(228, 26, 28); fill-opacity: 1; stroke: rgb(255, 255, 255); stroke-opacity: 1; opacity: 1;"/><g class="slicetext"><text data-notex="1" class="slicetext" text-anchor="middle" x="0" y="0" style="font-family: 'Open Sans', verdana, arial, sans-serif; font-size: 12px; fill: rgb(255, 255, 255); fill-opacity: 1; white-space: pre;" transform="translate(207.15317387969804,134.2551001249471)scale(0.8506408900205039)rotate(33.91627864012071)">annual</text></g></g><g class="slice"><path class="surface" d="M282.62566374008026,185.1105889511029L190.25132748016048,127.72117790220582A217.5,217.5 0,0,0 182.16282944541504,141.90141326786988L278.5814147227075,192.20070663393494A108.75,108.75 0,0,1 282.62566374008026,185.1105889511029Z" style="pointer-events: all; stroke-width: 1; fill: rgb(228, 26, 28); fill-opacity: 1; stroke: rgb(255, 255, 255); stroke-opacity: 1; opacity: 1;"/><g class="slicetext"><text data-notex="1" class="slicetext" text-anchor="middle" x="0" y="0" style="font-family: 'Open Sans', verdana, arial, sans-serif; font-size: 12px; fill: rgb(255, 255, 255); fill-opacity: 1; white-space: pre;" transform="translate(210.93727132389895,152.85808729906066)scale(0.7606319685373966)rotate(29.70071515722401)">development</text></g></g><g class="slice"><path class="surface" d="M278.5814147227075,192.20070663393494L182.16282944541504,141.90141326786988A217.5,217.5 0,0,0 170.43186767990105,168.62084706044283L272.71593383995054,205.5604235302214A108.75,108.75 0,0,1 278.5814147227075,192.20070663393494Z" style="pointer-events: all; stroke-width: 1; fill: rgb(228, 26, 28); fill-opacity: 1; stroke: rgb(255, 255, 255); stroke-opacity: 1; opacity: 1;"/><g class="slicetext"><text data-notex="1" class="slicetext" text-anchor="middle" x="0" y="0" style="font-family: 'Open Sans', verdana, arial, sans-serif; font-size: 12px; fill: rgb(255, 255, 255); fill-opacity: 1; white-space: pre;" transform="translate(204.41278904675426,172.51960395292397)rotate(23.703506453559214)">inflation</text></g></g><g class="slice"><path class="surface" d="M272.71593383995054,205.5604235302214L170.43186767990105,168.62084706044283A217.5,217.5 0,0,0 159.05587342042764,216.53109174829197L267.0279367102138,229.51554587414597A108.75,108.75 0,0,1 272.71593383995054,205.5604235302214Z" style="pointer-events: all; stroke-width: 1; fill: rgb(228, 26, 28); fill-opacity: 1; stroke: rgb(255, 255, 255); stroke-opacity: 1; opacity: 1;"/><g class="slicetext"><text data-notex="1" class="slicetext" text-anchor="middle" x="0" y="0" style="font-family: 'Open Sans', verdana, arial, sans-serif; font-size: 12px; fill: rgb(255, 255, 255); fill-opacity: 1; white-space: pre;" transform="translate(184.9027709193158,201.86257686944938)">price</text></g></g></g></g><g class="glimages"/><defs id="topdefs-1ce10a"><g class="clips"/></defs><g class="layer-above"><g class="imagelayer"/><g class="shapelayer"/></g><g class="infolayer"><g class="g-gtitle"/></g></svg>